<svg width="945" height="544" viewBox="0 0 945 544" fill="none" xmlns="http://www.w3.org/2000/svg">
<g clip-path="url(#clip0)">
<path d="M204.607 482.445C231.729 482.445 253.716 460.458 253.716 433.336C253.716 406.213 231.729 384.225 204.607 384.225C177.484 384.225 155.496 406.213 155.496 433.336C155.496 460.458 177.484 482.445 204.607 482.445Z" fill="#F2F2F2"/>
<path d="M212.592 475.258C239.714 475.258 261.701 453.271 261.701 426.148C261.701 399.026 239.714 377.039 212.592 377.039C185.47 377.039 163.483 399.026 163.483 426.148C163.483 453.271 185.47 475.258 212.592 475.258Z" fill="#0F4C81"/>
<path d="M859.759 371.81H252.142V373.468H859.759V371.81Z" fill="white"/>
<path d="M566.828 16.2821H351.161V11.8369H253.369V16.2821H36.8138C34.898 16.2821 33.001 16.6594 31.2311 17.3925C29.4611 18.1256 27.8529 19.2002 26.4983 20.5548C25.1437 21.9095 24.0691 23.5177 23.3359 25.2876C22.6028 27.0575 22.2255 28.9545 22.2255 30.8703V326.184C22.2255 330.053 23.7625 333.764 26.4983 336.5C29.2341 339.235 32.9447 340.773 36.8138 340.773H566.828C570.697 340.773 574.408 339.235 577.144 336.5C579.879 333.764 581.416 330.053 581.416 326.184V30.8703C581.416 28.9545 581.039 27.0575 580.306 25.2876C579.573 23.5177 578.498 21.9095 577.144 20.5548C575.789 19.2002 574.181 18.1256 572.411 17.3925C570.641 16.6594 568.744 16.2821 566.828 16.2821Z" fill="white"/>
<path d="M561.858 42.0632H41.7837V335.438H561.858V42.0632Z" fill="#0F4C81"/>
<path d="M301.376 34.062C304.322 34.062 306.71 31.6738 306.71 28.7279C306.71 25.782 304.322 23.3938 301.376 23.3938C298.43 23.3938 296.042 25.782 296.042 28.7279C296.042 31.6738 298.43 34.062 301.376 34.062Z" fill="#0F4C81"/>
<path opacity="0.1" d="M413.126 335.439H41.784V42.0635L413.126 335.439Z" fill="black"/>
<path d="M123.16 313.485C150.769 313.485 173.151 291.103 173.151 263.495C173.151 235.885 150.769 213.503 123.16 213.503C95.5503 213.503 73.1687 235.885 73.1687 263.495C73.1687 291.103 95.5503 313.485 123.16 313.485Z" fill="#F2F2F2"/>
<path d="M471.305 200.283H422.724V210.433H471.305V200.283Z" fill="#212121"/>
<path d="M530.036 121.249H363.992V125.599H530.036V121.249Z" fill="#212121"/>
<path d="M530.036 135.025H363.992V139.376H530.036V135.025Z" fill="#212121"/>
<path d="M530.036 148.802H363.992V153.152H530.036V148.802Z" fill="#212121"/>
<path d="M530.036 162.578H363.992V166.929H530.036V162.578Z" fill="#212121"/>
<path d="M530.036 176.355H363.992V180.706H530.036V176.355Z" fill="#212121"/>
<path d="M530.036 48.0151H509.734V68.3175H530.036V48.0151Z" fill="#F2F2F2"/>
<path d="M539.462 77.7437H514.81V53.0908H539.462V77.7437ZM515.881 76.6719H538.391V54.1627H515.881V76.6719Z" fill="#212121"/>
<path d="M596.019 330.105H545.263V326.447C545.263 326.353 545.244 326.258 545.208 326.171C545.171 326.083 545.118 326.002 545.051 325.935C544.983 325.868 544.904 325.814 544.816 325.778C544.728 325.741 544.633 325.723 544.538 325.723H527.136C527.041 325.723 526.947 325.741 526.858 325.778C526.77 325.814 526.691 325.868 526.624 325.935C526.556 326.002 526.503 326.083 526.466 326.171C526.43 326.258 526.411 326.353 526.411 326.447V330.105H515.535V326.447C515.535 326.353 515.516 326.258 515.479 326.171C515.443 326.083 515.39 326.002 515.323 325.935C515.255 325.868 515.175 325.814 515.087 325.778C514.999 325.741 514.905 325.723 514.809 325.723H497.407C497.312 325.723 497.218 325.741 497.13 325.778C497.042 325.814 496.962 325.868 496.895 325.935C496.828 326.002 496.774 326.083 496.738 326.171C496.701 326.258 496.683 326.353 496.683 326.447V330.105H485.806V326.447C485.806 326.353 485.787 326.258 485.751 326.171C485.715 326.083 485.661 326.002 485.594 325.935C485.527 325.868 485.446 325.814 485.359 325.778C485.271 325.741 485.176 325.723 485.081 325.723H467.679C467.584 325.723 467.49 325.741 467.402 325.778C467.314 325.814 467.234 325.868 467.166 325.935C467.099 326.002 467.045 326.083 467.009 326.171C466.973 326.258 466.954 326.353 466.954 326.447V330.105H456.078V326.447C456.078 326.353 456.059 326.258 456.023 326.171C455.986 326.083 455.933 326.002 455.865 325.935C455.798 325.868 455.718 325.814 455.63 325.778C455.542 325.741 455.448 325.723 455.352 325.723H437.951C437.856 325.723 437.761 325.741 437.673 325.778C437.586 325.814 437.505 325.868 437.438 325.935C437.371 326.002 437.317 326.083 437.28 326.171C437.244 326.258 437.226 326.353 437.226 326.447V330.105H426.349V326.447C426.349 326.353 426.331 326.258 426.294 326.171C426.258 326.083 426.204 326.002 426.137 325.935C426.07 325.868 425.989 325.814 425.902 325.778C425.814 325.741 425.719 325.723 425.625 325.723H408.223C408.127 325.723 408.033 325.741 407.945 325.778C407.857 325.814 407.777 325.868 407.709 325.935C407.642 326.002 407.588 326.083 407.553 326.171C407.516 326.258 407.497 326.353 407.497 326.447V330.105H396.621V326.447C396.621 326.353 396.602 326.258 396.566 326.171C396.529 326.083 396.476 326.002 396.408 325.935C396.341 325.868 396.262 325.814 396.173 325.778C396.085 325.741 395.991 325.723 395.896 325.723H378.494C378.399 325.723 378.304 325.741 378.216 325.778C378.128 325.814 378.048 325.868 377.981 325.935C377.914 326.002 377.861 326.083 377.824 326.171C377.788 326.258 377.769 326.353 377.769 326.447V330.105H366.892V326.447C366.892 326.353 366.874 326.258 366.837 326.171C366.801 326.083 366.747 326.002 366.68 325.935C366.613 325.868 366.533 325.814 366.444 325.778C366.357 325.741 366.263 325.723 366.168 325.723H229.851C229.756 325.723 229.662 325.741 229.574 325.778C229.486 325.814 229.406 325.868 229.339 325.935C229.272 326.002 229.218 326.083 229.182 326.171C229.145 326.258 229.127 326.353 229.127 326.447V330.105H218.25V326.447C218.25 326.353 218.231 326.258 218.195 326.171C218.159 326.083 218.105 326.002 218.038 325.935C217.971 325.868 217.89 325.814 217.803 325.778C217.715 325.741 217.62 325.723 217.525 325.723H200.123C200.028 325.723 199.934 325.741 199.846 325.778C199.758 325.814 199.678 325.868 199.611 325.935C199.543 326.002 199.489 326.083 199.453 326.171C199.417 326.258 199.398 326.353 199.398 326.447V330.105H188.522V326.447C188.522 326.353 188.503 326.258 188.467 326.171C188.43 326.083 188.377 326.002 188.309 325.935C188.242 325.868 188.162 325.814 188.074 325.778C187.986 325.741 187.892 325.723 187.796 325.723H170.395C170.3 325.723 170.205 325.741 170.117 325.778C170.03 325.814 169.949 325.868 169.882 325.935C169.815 326.002 169.761 326.083 169.724 326.171C169.688 326.258 169.67 326.353 169.67 326.447V330.105H158.793V326.447C158.793 326.353 158.775 326.258 158.738 326.171C158.702 326.083 158.648 326.002 158.581 325.935C158.514 325.868 158.433 325.814 158.346 325.778C158.258 325.741 158.163 325.723 158.069 325.723H140.667C140.571 325.723 140.477 325.741 140.389 325.778C140.301 325.814 140.221 325.868 140.153 325.935C140.086 326.002 140.032 326.083 139.997 326.171C139.96 326.258 139.941 326.353 139.941 326.447V330.105H129.065V326.447C129.065 326.353 129.046 326.258 129.01 326.171C128.973 326.083 128.92 326.002 128.852 325.935C128.785 325.868 128.706 325.814 128.617 325.778C128.529 325.741 128.435 325.723 128.34 325.723H110.938C110.843 325.723 110.748 325.741 110.66 325.778C110.572 325.814 110.492 325.868 110.425 325.935C110.358 326.002 110.305 326.083 110.268 326.171C110.232 326.258 110.213 326.353 110.213 326.447V330.105H99.3369V326.447C99.3369 326.353 99.3178 326.258 99.2814 326.171C99.2449 326.083 99.1918 326.002 99.1239 325.935C99.0567 325.868 98.9771 325.814 98.8893 325.778C98.8006 325.741 98.7069 325.723 98.6116 325.723H81.2094C81.1142 325.723 81.0199 325.741 80.932 325.778C80.8439 325.814 80.764 325.868 80.6967 325.935C80.6294 326.002 80.5759 326.083 80.5395 326.171C80.5031 326.258 80.4843 326.353 80.4843 326.447V330.105H69.608V326.447C69.608 326.353 69.5893 326.258 69.5529 326.171C69.5164 326.083 69.463 326.002 69.3957 325.935C69.3283 325.868 69.2484 325.814 69.1605 325.778C69.0725 325.741 68.9782 325.723 68.883 325.723H51.4809C51.3857 325.723 51.2914 325.741 51.2035 325.778C51.1155 325.814 51.0356 325.868 50.9682 325.935C50.9009 326.002 50.8475 326.083 50.8111 326.171C50.7746 326.258 50.7559 326.353 50.7559 326.447V330.105H17.402C12.7867 330.105 8.36043 331.938 5.09694 335.202C1.83342 338.465 4.397e-06 342.891 0 347.507V355.375C1.3191e-05 359.991 1.83344 364.417 5.09695 367.681C8.36043 370.944 12.7868 372.777 17.402 372.777H596.019C600.635 372.777 605.06 370.944 608.324 367.681C611.587 364.417 613.421 359.991 613.421 355.375V347.507C613.421 342.891 611.587 338.465 608.324 335.202C605.06 331.938 600.635 330.105 596.019 330.105Z" fill="white"/>
<path d="M135.26 294.718C122.8 294.718 110.62 291.023 100.26 284.1C89.8994 277.178 81.8245 267.338 77.0562 255.827C72.2879 244.315 71.0403 231.648 73.4711 219.427C75.902 207.206 81.9022 195.981 90.7126 187.17C99.5235 178.359 110.749 172.359 122.97 169.928C135.191 167.497 147.858 168.745 159.369 173.513C170.882 178.281 180.721 186.357 187.643 196.717C194.566 207.077 198.26 219.258 198.26 231.718C198.242 248.42 191.598 264.434 179.787 276.244C167.977 288.055 151.964 294.698 135.26 294.718ZM135.26 170.375C123.129 170.375 111.268 173.973 101.181 180.713C91.0931 187.453 83.2305 197.034 78.5879 208.243C73.945 219.452 72.7303 231.786 75.0972 243.685C77.4641 255.584 83.306 266.514 91.8856 275.093C100.464 283.672 111.394 289.514 123.294 291.881C135.192 294.248 147.526 293.033 158.735 288.39C169.944 283.747 179.524 275.885 186.265 265.797C193.005 255.71 196.602 243.85 196.602 231.718C196.584 215.454 190.116 199.862 178.616 188.363C167.116 176.863 151.524 170.394 135.26 170.375Z" fill="#212121"/>
<path d="M697.286 27.7969H485.905V29.4548H697.286V27.7969Z" fill="white"/>
<path d="M944.312 465.481H336.694V467.139H944.312V465.481Z" fill="white"/>
<path d="M371.095 541.744H159.715V543.402H371.095V541.744Z" fill="white"/>
<path d="M413.645 456.741H390.434V479.951H413.645V456.741Z" fill="#0F4C81"/>
<path d="M427.737 466.688H399.553V438.504H427.737V466.688ZM400.778 465.463H426.512V439.729H400.778V465.463Z" fill="white"/>
<path d="M683.053 19.0569H659.842V42.2674H683.053V19.0569Z" fill="#0F4C81"/>
<path d="M697.145 29.0043H668.961V0.820068H697.145V29.0043ZM670.186 27.7788H695.92V2.04547H670.186V27.7788Z" fill="white"/>
<path d="M916.816 456.741H893.605V479.951H916.816V456.741Z" fill="#0F4C81"/>
<path d="M930.908 466.688H902.724V438.504H930.908V466.688ZM903.95 465.463H929.681V439.729H903.95V465.463Z" fill="white"/>
<path d="M876.338 193.101H874.365V139.086C874.365 134.98 873.561 130.915 871.986 127.122C870.42 123.33 868.115 119.883 865.214 116.98C862.304 114.077 858.864 111.774 855.067 110.203C851.279 108.631 847.209 107.823 843.106 107.823H728.665C724.561 107.823 720.495 108.631 716.702 110.203C712.909 111.774 709.463 114.077 706.56 116.98C703.657 119.883 701.354 123.33 699.782 127.122C698.212 130.915 697.403 134.98 697.403 139.086V435.419C697.403 439.525 698.212 443.59 699.782 447.383C701.354 451.176 703.657 454.622 706.56 457.525C709.463 460.428 712.909 462.731 716.702 464.302C720.495 465.874 724.561 466.682 728.665 466.682H843.106C847.209 466.682 851.279 465.874 855.067 464.302C858.864 462.731 862.304 460.428 865.214 457.525C868.115 454.622 870.42 451.176 871.986 447.383C873.561 443.59 874.365 439.525 874.365 435.419V231.55H876.338V193.101Z" fill="white"/>
<path d="M867.709 140.923V436.824C867.709 443.016 865.255 448.955 860.878 453.334C856.493 457.713 850.558 460.174 844.365 460.175H729.375C723.183 460.174 717.245 457.713 712.867 453.334C708.489 448.955 706.031 443.016 706.032 436.824V140.923C706.032 134.732 708.492 128.795 712.87 124.418C717.247 120.04 723.184 117.58 729.375 117.58H743.326C742.64 119.264 742.378 121.091 742.564 122.9C742.75 124.709 743.377 126.445 744.392 127.954C745.407 129.463 746.777 130.7 748.383 131.555C749.987 132.41 751.778 132.857 753.597 132.857H819.158C820.977 132.857 822.768 132.41 824.373 131.555C825.979 130.7 827.349 129.463 828.364 127.954C829.378 126.445 830.008 124.709 830.191 122.9C830.381 121.091 830.116 119.264 829.428 117.58H844.365C850.558 117.58 856.493 120.04 860.87 124.418C865.247 128.795 867.709 134.732 867.709 140.923Z" fill="#0F4C81"/>
<path d="M803.998 312.685H769.744V322.836H803.998V312.685Z" fill="#212121"/>
<path d="M845.41 233.651H728.331V238.001H845.41V233.651Z" fill="#212121"/>
<path d="M845.41 247.427H728.331V251.777H845.41V247.427Z" fill="#212121"/>
<path d="M845.41 261.204H728.331V265.554H845.41V261.204Z" fill="#212121"/>
<path d="M845.41 274.98H728.331V279.331H845.41V274.98Z" fill="#212121"/>
<path d="M845.41 288.757H728.331V293.108H845.41V288.757Z" fill="#212121"/>
<path d="M790.961 175.876H770.659V196.178H790.961V175.876Z" fill="#F2F2F2"/>
<path d="M778.43 180.953V205.606H803.083V180.953H778.43ZM802.014 204.536H779.5V182.022H802.014V204.536Z" fill="#212121"/>
<path opacity="0.1" d="M867.709 405.224V436.824C867.709 443.016 865.255 448.954 860.878 453.334C856.493 457.713 850.558 460.174 844.365 460.175H729.375C723.183 460.174 717.245 457.713 712.867 453.334C708.489 448.954 706.031 443.016 706.032 436.824V277.492L802.911 354.028L804.569 355.338L822.59 369.571L824.273 370.906L867.709 405.224Z" fill="black"/>
<path d="M776.923 450.586C797.007 450.586 813.288 434.305 813.288 414.222C813.288 394.138 797.007 377.857 776.923 377.857C756.84 377.857 740.56 394.138 740.56 414.222C740.56 434.305 756.84 450.586 776.923 450.586Z" fill="#F2F2F2"/>
<path d="M265.405 543.402C251.141 543.402 237.198 539.172 225.339 531.248C213.479 523.323 204.235 512.06 198.777 498.881C193.318 485.704 191.89 471.203 194.672 457.214C197.455 443.224 204.324 430.374 214.41 420.288C224.496 410.202 237.346 403.334 251.335 400.551C265.325 397.768 279.826 399.196 293.004 404.654C306.182 410.113 317.445 419.356 325.369 431.216C333.294 443.076 337.523 457.02 337.523 471.283C337.502 490.404 329.897 508.734 316.377 522.255C302.857 535.775 284.525 543.38 265.405 543.402ZM265.405 400.823C251.469 400.823 237.847 404.955 226.26 412.697C214.672 420.44 205.641 431.444 200.308 444.319C194.975 457.195 193.58 471.361 196.299 485.03C199.017 498.697 205.728 511.253 215.582 521.106C225.436 530.961 237.991 537.671 251.659 540.39C265.327 543.109 279.495 541.713 292.369 536.381C305.244 531.047 316.248 522.017 323.991 510.43C331.733 498.842 335.865 485.219 335.865 471.283C335.845 452.602 328.414 434.693 315.205 421.483C301.995 408.274 284.086 400.843 265.405 400.823Z" fill="white"/>
<path d="M787.642 442.27C778.624 442.27 769.81 439.596 762.312 434.587C754.815 429.576 748.971 422.457 745.52 414.126C742.07 405.795 741.167 396.627 742.926 387.783C744.685 378.939 749.028 370.816 755.404 364.439C761.779 358.063 769.903 353.721 778.747 351.962C787.591 350.203 796.759 351.106 805.089 354.557C813.42 358.007 820.541 363.851 825.55 371.349C830.564 378.846 833.233 387.661 833.233 396.678C833.216 408.766 828.413 420.354 819.865 428.902C811.318 437.449 799.729 442.257 787.642 442.27ZM787.642 352.744C778.953 352.744 770.459 355.32 763.233 360.148C756.008 364.976 750.377 371.837 747.052 379.865C743.727 387.893 742.857 396.727 744.552 405.249C746.247 413.772 750.432 421.6 756.576 427.745C762.72 433.889 770.549 438.073 779.071 439.768C787.594 441.464 796.427 440.593 804.455 437.268C812.483 433.943 819.345 428.312 824.172 421.086C828.997 413.861 831.575 405.367 831.575 396.678C831.567 385.03 826.931 373.863 818.694 365.627C810.458 357.39 799.29 352.757 787.642 352.744Z" fill="#212121"/>
</g>
<defs>
<clipPath id="clip0">
<rect width="945" height="542.961" fill="white" transform="translate(0 0.820068)"/>
</clipPath>
</defs>
</svg>
