<svg width="921" height="524" viewBox="0 0 921 524" fill="none" xmlns="http://www.w3.org/2000/svg">
<g clip-path="url(#clip0)">
<path opacity="0.1" d="M921 336.334C921.011 350.569 919.155 364.737 915.485 378.436C911.938 391.642 906.72 404.285 899.972 416.022C899.972 458.548 872.744 495.303 833.223 512.789C816.709 520.022 798.994 523.715 781.111 523.654H174.837C142.433 523.654 112.404 514.435 87.7768 498.732C80.7288 494.258 74.0428 489.179 67.787 483.546C40.4146 458.744 23.4437 424.468 23.4437 386.61C8.08148 361.669 -0.0642885 332.553 7.32982e-05 302.813C7.32982e-05 240.543 34.9321 186.999 84.9752 163.359C91.6204 160.221 98.4869 157.633 105.513 155.618C107.998 154.905 110.509 154.265 113.048 153.699C119.815 152.18 126.68 151.187 133.585 150.729C136.081 150.564 138.59 150.471 141.113 150.448H142.497C145.283 150.448 148.044 150.55 150.79 150.72L151.691 149.107C152.797 147.161 153.929 145.234 155.089 143.327C157.182 139.852 159.377 136.429 161.674 133.056C164.079 129.496 166.588 125.994 169.202 122.547L169.87 121.699C171.351 119.752 172.865 117.828 174.41 115.926C179.241 109.99 184.34 104.232 189.707 98.6528C247.76 38.6574 338.709 0.0356445 440.953 0.0356445C520.51 0.0356445 593.232 23.4209 648.935 62.0597C670.037 49.4686 693.875 42.8619 718.122 42.8846C796.81 42.8846 860.62 111.105 860.62 195.258C860.608 200.583 860.339 205.903 859.815 211.199C878.783 225.356 894.243 244.115 904.892 265.894C915.54 287.672 921.065 311.832 921 336.334V336.334Z" fill="#0F4C81"/>
<path opacity="0.2" d="M189.723 98.6174V115.891H174.426C179.219 109.961 184.318 104.203 189.723 98.6174Z" fill="#0F4C81"/>
<path opacity="0.2" d="M217.796 94.2371H197.258V115.891H217.796V94.2371Z" fill="#0F4C81"/>
<path opacity="0.2" d="M245.86 94.2371H225.323V115.891H245.86V94.2371Z" fill="#0F4C81"/>
<path opacity="0.2" d="M273.933 94.2371H253.396V115.891H273.933V94.2371Z" fill="#0F4C81"/>
<path opacity="0.2" d="M301.998 94.2371H281.461V115.891H301.998V94.2371Z" fill="#0F4C81"/>
<path opacity="0.2" d="M330.071 94.2371H309.533V115.891H330.071V94.2371Z" fill="#0F4C81"/>
<path d="M358.143 94.2371H337.606V115.891H358.143V94.2371Z" fill="#0F4C81"/>
<path opacity="0.2" d="M386.208 94.2371H365.671V115.891H386.208V94.2371Z" fill="#0F4C81"/>
<path opacity="0.2" d="M414.281 94.2371H393.744V115.891H414.281V94.2371Z" fill="#0F4C81"/>
<path opacity="0.2" d="M442.346 94.2371H421.808V115.891H442.346V94.2371Z" fill="#0F4C81"/>
<path d="M470.419 94.2371H449.881V115.891H470.419V94.2371Z" fill="#0F4C81"/>
<path opacity="0.2" d="M498.491 94.2371H477.954V115.891H498.491V94.2371Z" fill="#0F4C81"/>
<path opacity="0.2" d="M526.556 94.2371H506.019V115.891H526.556V94.2371Z" fill="#0F4C81"/>
<path opacity="0.2" d="M554.629 94.2371H534.091V115.891H554.629V94.2371Z" fill="#0F4C81"/>
<path opacity="0.2" d="M582.702 94.2371H562.164V115.891H582.702V94.2371Z" fill="#0F4C81"/>
<path opacity="0.2" d="M610.766 94.2371H590.229V115.891H610.766V94.2371Z" fill="#0F4C81"/>
<path opacity="0.2" d="M638.839 94.2371H618.302V115.891H638.839V94.2371Z" fill="#0F4C81"/>
<path d="M666.904 94.2371H646.367V115.891H666.904V94.2371Z" fill="#0F4C81"/>
<path d="M694.977 94.2371H674.439V115.891H694.977V94.2371Z" fill="#0F4C81"/>
<path opacity="0.2" d="M723.049 94.2371H702.512V115.891H723.049V94.2371Z" fill="#0F4C81"/>
<path opacity="0.2" d="M751.114 94.2371H730.577V115.891H751.114V94.2371Z" fill="#0F4C81"/>
<path d="M779.187 94.2371H758.65V115.891H779.187V94.2371Z" fill="#0F4C81"/>
<path d="M807.252 94.2371H786.714V115.891H807.252V94.2371Z" fill="#0F4C81"/>
<path d="M161.658 133.046V143.317H155.073C157.166 139.82 159.361 136.396 161.658 133.046Z" fill="#0F4C81"/>
<path opacity="0.2" d="M189.723 121.663H169.185V143.316H189.723V121.663Z" fill="#0F4C81"/>
<path d="M217.796 121.663H197.258V143.316H217.796V121.663Z" fill="#0F4C81"/>
<path opacity="0.2" d="M245.86 121.663H225.323V143.316H245.86V121.663Z" fill="#0F4C81"/>
<path opacity="0.7" d="M273.933 121.663H253.396V143.316H273.933V121.663Z" fill="#0F4C81"/>
<path opacity="0.2" d="M301.998 121.663H281.461V143.316H301.998V121.663Z" fill="#0F4C81"/>
<path opacity="0.4" d="M330.071 121.663H309.533V143.316H330.071V121.663Z" fill="#0F4C81"/>
<path d="M358.143 121.663H337.606V143.316H358.143V121.663Z" fill="#0F4C81"/>
<path opacity="0.4" d="M386.208 121.663H365.671V143.316H386.208V121.663Z" fill="#0F4C81"/>
<path opacity="0.2" d="M414.281 121.663H393.744V143.316H414.281V121.663Z" fill="#0F4C81"/>
<path opacity="0.4" d="M442.346 121.663H421.808V143.316H442.346V121.663Z" fill="#0F4C81"/>
<path d="M470.419 121.663H449.881V143.316H470.419V121.663Z" fill="#0F4C81"/>
<path opacity="0.4" d="M498.491 121.663H477.954V143.316H498.491V121.663Z" fill="#0F4C81"/>
<path opacity="0.4" d="M526.556 121.663H506.019V143.316H526.556V121.663Z" fill="#0F4C81"/>
<path opacity="0.2" d="M554.629 121.663H534.091V143.316H554.629V121.663Z" fill="#0F4C81"/>
<path opacity="0.4" d="M582.702 121.663H562.164V143.316H582.702V121.663Z" fill="#0F4C81"/>
<path opacity="0.4" d="M610.766 121.663H590.229V143.316H610.766V121.663Z" fill="#0F4C81"/>
<path opacity="0.2" d="M638.839 121.663H618.302V143.316H638.839V121.663Z" fill="#0F4C81"/>
<path opacity="0.2" d="M666.904 121.663H646.367V143.316H666.904V121.663Z" fill="#0F4C81"/>
<path opacity="0.4" d="M694.977 121.663H674.439V143.316H694.977V121.663Z" fill="#0F4C81"/>
<path opacity="0.2" d="M723.049 121.663H702.512V143.316H723.049V121.663Z" fill="#0F4C81"/>
<path d="M751.114 121.663H730.577V143.316H751.114V121.663Z" fill="#0F4C81"/>
<path d="M779.187 121.663H758.65V143.316H779.187V121.663Z" fill="#0F4C81"/>
<path d="M807.252 121.663H786.714V143.316H807.252V121.663Z" fill="#0F4C81"/>
<path opacity="0.2" d="M105.512 155.616V170.751H84.9751V163.358C91.6203 160.22 98.4868 157.632 105.512 155.616V155.616Z" fill="#0F4C81"/>
<path opacity="0.2" d="M133.585 150.727V170.75H113.048V153.697L133.585 150.727Z" fill="#0F4C81"/>
<path d="M161.65 149.097H141.113V170.751H161.65V149.097Z" fill="#0F4C81"/>
<path opacity="0.7" d="M189.723 149.097H169.185V170.751H189.723V149.097Z" fill="#0F4C81"/>
<path d="M217.796 149.097H197.258V170.751H217.796V149.097Z" fill="#0F4C81"/>
<path opacity="0.7" d="M245.86 149.097H225.323V170.751H245.86V149.097Z" fill="#0F4C81"/>
<path opacity="0.7" d="M273.933 149.097H253.396V170.751H273.933V149.097Z" fill="#0F4C81"/>
<path opacity="0.2" d="M301.998 149.097H281.461V170.751H301.998V149.097Z" fill="#0F4C81"/>
<path opacity="0.4" d="M330.071 149.097H309.533V170.751H330.071V149.097Z" fill="#0F4C81"/>
<path opacity="0.4" d="M358.143 149.097H337.606V170.751H358.143V149.097Z" fill="#0F4C81"/>
<path d="M386.208 149.097H365.671V170.751H386.208V149.097Z" fill="#0F4C81"/>
<path opacity="0.2" d="M414.281 149.097H393.744V170.751H414.281V149.097Z" fill="#0F4C81"/>
<path opacity="0.4" d="M442.346 149.097H421.808V170.751H442.346V149.097Z" fill="#0F4C81"/>
<path d="M470.419 149.097H449.881V170.751H470.419V149.097Z" fill="#0F4C81"/>
<path opacity="0.2" d="M498.491 149.097H477.954V170.751H498.491V149.097Z" fill="#0F4C81"/>
<path opacity="0.4" d="M526.556 149.097H506.019V170.751H526.556V149.097Z" fill="#0F4C81"/>
<path opacity="0.2" d="M554.629 149.097H534.091V170.751H554.629V149.097Z" fill="#0F4C81"/>
<path d="M582.702 149.097H562.164V170.751H582.702V149.097Z" fill="#0F4C81"/>
<path opacity="0.2" d="M610.766 149.097H590.229V170.751H610.766V149.097Z" fill="#0F4C81"/>
<path opacity="0.7" d="M638.839 149.097H618.302V170.751H638.839V149.097Z" fill="#0F4C81"/>
<path opacity="0.7" d="M666.904 149.097H646.367V170.751H666.904V149.097Z" fill="#0F4C81"/>
<path opacity="0.4" d="M694.977 149.097H674.439V170.751H694.977V149.097Z" fill="#0F4C81"/>
<path opacity="0.2" d="M723.049 149.097H702.512V170.751H723.049V149.097Z" fill="#0F4C81"/>
<path d="M751.114 149.097H730.577V170.751H751.114V149.097Z" fill="#0F4C81"/>
<path d="M779.187 149.097H758.65V170.751H779.187V149.097Z" fill="#0F4C81"/>
<path d="M807.252 149.097H786.714V170.751H807.252V149.097Z" fill="#0F4C81"/>
<path opacity="0.2" d="M105.512 176.523H84.9751V198.177H105.512V176.523Z" fill="#0F4C81"/>
<path opacity="0.2" d="M133.585 176.523H113.048V198.177H133.585V176.523Z" fill="#0F4C81"/>
<path opacity="0.2" d="M161.65 176.523H141.113V198.177H161.65V176.523Z" fill="#0F4C81"/>
<path opacity="0.2" d="M189.723 176.523H169.185V198.177H189.723V176.523Z" fill="#0F4C81"/>
<path d="M217.796 176.523H197.258V198.177H217.796V176.523Z" fill="#0F4C81"/>
<path opacity="0.7" d="M245.86 176.523H225.323V198.177H245.86V176.523Z" fill="#0F4C81"/>
<path opacity="0.7" d="M273.933 176.523H253.396V198.177H273.933V176.523Z" fill="#0F4C81"/>
<path opacity="0.2" d="M301.998 176.523H281.461V198.177H301.998V176.523Z" fill="#0F4C81"/>
<path opacity="0.2" d="M330.071 176.523H309.533V198.177H330.071V176.523Z" fill="#0F4C81"/>
<path opacity="0.4" d="M358.143 176.523H337.606V198.177H358.143V176.523Z" fill="#0F4C81"/>
<path opacity="0.4" d="M386.208 176.523H365.671V198.177H386.208V176.523Z" fill="#0F4C81"/>
<path d="M414.281 176.523H393.744V198.177H414.281V176.523Z" fill="#0F4C81"/>
<path opacity="0.2" d="M442.346 176.523H421.808V198.177H442.346V176.523Z" fill="#0F4C81"/>
<path opacity="0.4" d="M470.419 176.523H449.881V198.177H470.419V176.523Z" fill="#0F4C81"/>
<path opacity="0.4" d="M498.491 176.523H477.954V198.177H498.491V176.523Z" fill="#0F4C81"/>
<path opacity="0.4" d="M526.556 176.523H506.019V198.177H526.556V176.523Z" fill="#0F4C81"/>
<path opacity="0.4" d="M554.629 176.523H534.091V198.177H554.629V176.523Z" fill="#0F4C81"/>
<path opacity="0.2" d="M582.702 176.523H562.164V198.177H582.702V176.523Z" fill="#0F4C81"/>
<path opacity="0.2" d="M610.766 176.523H590.229V198.177H610.766V176.523Z" fill="#0F4C81"/>
<path opacity="0.2" d="M638.839 176.523H618.302V198.177H638.839V176.523Z" fill="#0F4C81"/>
<path opacity="0.2" d="M666.904 176.523H646.367V198.177H666.904V176.523Z" fill="#0F4C81"/>
<path opacity="0.7" d="M694.977 176.523H674.439V198.177H694.977V176.523Z" fill="#0F4C81"/>
<path opacity="0.7" d="M723.049 176.523H702.512V198.177H723.049V176.523Z" fill="#0F4C81"/>
<path opacity="0.4" d="M751.114 176.523H730.577V198.177H751.114V176.523Z" fill="#0F4C81"/>
<path opacity="0.2" d="M779.187 176.523H758.65V198.177H779.187V176.523Z" fill="#0F4C81"/>
<path d="M807.252 176.523H786.714V198.177H807.252V176.523Z" fill="#0F4C81"/>
<path opacity="0.2" d="M105.512 203.957H84.9751V225.611H105.512V203.957Z" fill="#0F4C81"/>
<path opacity="0.2" d="M133.585 203.957H113.048V225.611H133.585V203.957Z" fill="#0F4C81"/>
<path opacity="0.4" d="M161.65 203.957H141.113V225.611H161.65V203.957Z" fill="#0F4C81"/>
<path opacity="0.2" d="M189.723 203.957H169.185V225.611H189.723V203.957Z" fill="#0F4C81"/>
<path opacity="0.2" d="M217.796 203.957H197.258V225.611H217.796V203.957Z" fill="#0F4C81"/>
<path opacity="0.7" d="M245.86 203.957H225.323V225.611H245.86V203.957Z" fill="#0F4C81"/>
<path opacity="0.7" d="M273.933 203.957H253.396V225.611H273.933V203.957Z" fill="#0F4C81"/>
<path opacity="0.2" d="M301.998 203.957H281.461V225.611H301.998V203.957Z" fill="#0F4C81"/>
<path opacity="0.2" d="M330.071 203.957H309.533V225.611H330.071V203.957Z" fill="#0F4C81"/>
<path opacity="0.4" d="M358.143 203.957H337.606V225.611H358.143V203.957Z" fill="#0F4C81"/>
<path d="M386.208 203.957H365.671V225.611H386.208V203.957Z" fill="#0F4C81"/>
<path opacity="0.2" d="M414.281 203.957H393.744V225.611H414.281V203.957Z" fill="#0F4C81"/>
<path d="M442.346 203.957H421.808V225.611H442.346V203.957Z" fill="#0F4C81"/>
<path d="M470.419 203.957H449.881V225.611H470.419V203.957Z" fill="#0F4C81"/>
<path d="M498.491 203.957H477.954V225.611H498.491V203.957Z" fill="#0F4C81"/>
<path opacity="0.2" d="M526.556 203.957H506.019V225.611H526.556V203.957Z" fill="#0F4C81"/>
<path d="M554.629 203.957H534.091V225.611H554.629V203.957Z" fill="#0F4C81"/>
<path opacity="0.2" d="M582.702 203.957H562.164V225.611H582.702V203.957Z" fill="#0F4C81"/>
<path opacity="0.2" d="M610.766 203.957H590.229V225.611H610.766V203.957Z" fill="#0F4C81"/>
<path opacity="0.2" d="M638.839 203.957H618.302V225.611H638.839V203.957Z" fill="#0F4C81"/>
<path opacity="0.2" d="M666.904 203.957H646.367V225.611H666.904V203.957Z" fill="#0F4C81"/>
<path opacity="0.2" d="M694.977 203.957H674.439V225.611H694.977V203.957Z" fill="#0F4C81"/>
<path opacity="0.7" d="M723.049 203.957H702.512V225.611H723.049V203.957Z" fill="#0F4C81"/>
<path opacity="0.2" d="M751.114 203.957H730.577V225.611H751.114V203.957Z" fill="#0F4C81"/>
<path opacity="0.2" d="M779.187 203.957H758.65V225.611H779.187V203.957Z" fill="#0F4C81"/>
<path d="M807.252 203.957H786.714V225.611H807.252V203.957Z" fill="#0F4C81"/>
<path opacity="0.2" d="M105.512 231.383H84.9751V253.036H105.512V231.383Z" fill="#0F4C81"/>
<path opacity="0.2" d="M133.585 231.383H113.048V253.036H133.585V231.383Z" fill="#0F4C81"/>
<path opacity="0.2" d="M161.65 231.383H141.113V253.036H161.65V231.383Z" fill="#0F4C81"/>
<path opacity="0.4" d="M189.723 231.383H169.185V253.036H189.723V231.383Z" fill="#0F4C81"/>
<path opacity="0.2" d="M217.796 231.383H197.258V253.036H217.796V231.383Z" fill="#0F4C81"/>
<path opacity="0.2" d="M245.86 231.383H225.323V253.036H245.86V231.383Z" fill="#0F4C81"/>
<path opacity="0.7" d="M273.933 231.383H253.396V253.036H273.933V231.383Z" fill="#0F4C81"/>
<path opacity="0.2" d="M301.998 231.383H281.461V253.036H301.998V231.383Z" fill="#0F4C81"/>
<path opacity="0.2" d="M330.071 231.383H309.533V253.036H330.071V231.383Z" fill="#0F4C81"/>
<path opacity="0.2" d="M358.143 231.383H337.606V253.036H358.143V231.383Z" fill="#0F4C81"/>
<path d="M386.208 231.383H365.671V253.036H386.208V231.383Z" fill="#0F4C81"/>
<path opacity="0.2" d="M414.281 231.383H393.744V253.036H414.281V231.383Z" fill="#0F4C81"/>
<path d="M442.346 231.383H421.808V253.036H442.346V231.383Z" fill="#0F4C81"/>
<path d="M470.419 231.383H449.881V253.036H470.419V231.383Z" fill="#0F4C81"/>
<path opacity="0.2" d="M498.491 231.383H477.954V253.036H498.491V231.383Z" fill="#0F4C81"/>
<path opacity="0.2" d="M526.556 231.383H506.019V253.036H526.556V231.383Z" fill="#0F4C81"/>
<path opacity="0.2" d="M554.629 231.383H534.091V253.036H554.629V231.383Z" fill="#0F4C81"/>
<path opacity="0.2" d="M582.702 231.383H562.164V253.036H582.702V231.383Z" fill="#0F4C81"/>
<path opacity="0.2" d="M610.766 231.383H590.229V253.036H610.766V231.383Z" fill="#0F4C81"/>
<path opacity="0.2" d="M638.839 231.383H618.302V253.036H638.839V231.383Z" fill="#0F4C81"/>
<path opacity="0.2" d="M666.904 231.383H646.367V253.036H666.904V231.383Z" fill="#0F4C81"/>
<path opacity="0.2" d="M694.977 231.383H674.439V253.036H694.977V231.383Z" fill="#0F4C81"/>
<path opacity="0.2" d="M723.049 231.383H702.512V253.036H723.049V231.383Z" fill="#0F4C81"/>
<path opacity="0.2" d="M751.114 231.383H730.577V253.036H751.114V231.383Z" fill="#0F4C81"/>
<path opacity="0.4" d="M779.187 231.383H758.65V253.036H779.187V231.383Z" fill="#0F4C81"/>
<path d="M807.252 231.383H786.714V253.036H807.252V231.383Z" fill="#0F4C81"/>
<path opacity="0.7" d="M105.512 258.817H84.9751V280.471H105.512V258.817Z" fill="#0F4C81"/>
<path opacity="0.7" d="M133.585 258.817H113.048V280.471H133.585V258.817Z" fill="#0F4C81"/>
<path opacity="0.7" d="M161.65 258.817H141.113V280.471H161.65V258.817Z" fill="#0F4C81"/>
<path opacity="0.7" d="M189.723 258.817H169.185V280.471H189.723V258.817Z" fill="#0F4C81"/>
<path opacity="0.7" d="M217.796 258.817H197.258V280.471H217.796V258.817Z" fill="#0F4C81"/>
<path opacity="0.2" d="M245.86 258.817H225.323V280.471H245.86V258.817Z" fill="#0F4C81"/>
<path opacity="0.2" d="M273.933 258.817H253.396V280.471H273.933V258.817Z" fill="#0F4C81"/>
<path opacity="0.2" d="M301.998 258.817H281.461V280.471H301.998V258.817Z" fill="#0F4C81"/>
<path opacity="0.2" d="M330.071 258.817H309.533V280.471H330.071V258.817Z" fill="#0F4C81"/>
<path opacity="0.2" d="M358.143 258.817H337.606V280.471H358.143V258.817Z" fill="#0F4C81"/>
<path opacity="0.2" d="M386.208 258.817H365.671V280.471H386.208V258.817Z" fill="#0F4C81"/>
<path d="M414.281 258.817H393.744V280.471H414.281V258.817Z" fill="#0F4C81"/>
<path opacity="0.2" d="M442.346 258.817H421.808V280.471H442.346V258.817Z" fill="#0F4C81"/>
<path opacity="0.2" d="M470.419 258.817H449.881V280.471H470.419V258.817Z" fill="#0F4C81"/>
<path opacity="0.2" d="M498.491 258.817H477.954V280.471H498.491V258.817Z" fill="#0F4C81"/>
<path d="M526.556 258.817H506.019V280.471H526.556V258.817Z" fill="#0F4C81"/>
<path opacity="0.2" d="M554.629 258.817H534.091V280.471H554.629V258.817Z" fill="#0F4C81"/>
<path opacity="0.2" d="M582.702 258.817H562.164V280.471H582.702V258.817Z" fill="#0F4C81"/>
<path opacity="0.2" d="M610.766 258.817H590.229V280.471H610.766V258.817Z" fill="#0F4C81"/>
<path opacity="0.2" d="M638.839 258.817H618.302V280.471H638.839V258.817Z" fill="#0F4C81"/>
<path opacity="0.2" d="M666.904 258.817H646.367V280.471H666.904V258.817Z" fill="#0F4C81"/>
<path opacity="0.2" d="M694.977 258.817H674.439V280.471H694.977V258.817Z" fill="#0F4C81"/>
<path opacity="0.2" d="M723.049 258.817H702.512V280.471H723.049V258.817Z" fill="#0F4C81"/>
<path opacity="0.2" d="M751.114 258.817H730.577V280.471H751.114V258.817Z" fill="#0F4C81"/>
<path opacity="0.2" d="M779.187 258.817H758.65V280.471H779.187V258.817Z" fill="#0F4C81"/>
<path d="M807.252 258.817H786.714V280.471H807.252V258.817Z" fill="#0F4C81"/>
<path d="M591.34 338.48C606.844 338.48 619.413 325.228 619.413 308.881C619.413 292.534 606.844 279.282 591.34 279.282C575.836 279.282 563.267 292.534 563.267 308.881C563.267 325.228 575.836 338.48 591.34 338.48Z" fill="#767D9F"/>
<path d="M589.883 271.227C592.684 284.118 595.062 297.105 597.016 310.188C597.603 314.076 598.127 318.176 596.79 321.851C595.671 324.915 593.393 327.309 591.606 329.991C589.818 332.674 588.466 336.111 589.553 339.184C590.639 342.257 593.811 343.938 596.838 344.803C605.501 347.265 614.735 345.474 623.357 342.809C627.261 341.749 631.004 340.114 634.476 337.953C638.131 335.509 641.125 332.113 643.879 328.616C656.446 312.548 664.674 293.262 672.418 274.096C667.442 274.573 662.429 273.795 657.794 271.827C653.159 269.858 649.035 266.754 645.763 262.772C642.591 258.842 640.264 253.367 642.051 248.563C636.81 251.593 630.587 251.797 624.944 253.868C621.444 255.278 618.075 257.025 614.88 259.088C611.027 261.437 607.194 263.831 603.384 266.27C599.028 269.037 594.947 271.498 589.883 271.227Z" fill="#AE6E79"/>
<path d="M648.597 293.449C643.678 303.542 637.277 313.244 628.14 319.254C619.002 325.263 606.701 326.893 597.547 320.951C593.039 318.048 589.625 313.634 585.689 309.916C581.752 306.199 576.833 303.016 571.543 303.499C565.715 304.034 561.15 308.83 557.245 313.422C551.32 320.4 545.596 327.674 541.402 335.933C533.351 351.806 531.443 370.362 531.797 388.357C532.151 406.352 534.623 424.254 534.679 442.249C534.76 464.387 531.201 486.346 527.603 508.152C560.691 503.857 593.82 513.245 626.981 516.802C648.202 519.102 669.585 519.051 690.919 518.992C694.671 518.992 698.664 518.89 701.788 516.7C703.697 515.232 705.241 513.298 706.288 511.064C709.235 505.334 710.418 498.798 711.239 492.339C713.324 476.024 713.389 459.506 713.445 443.039C713.59 403.144 713.727 363.104 708.921 323.523C707.737 313.787 706.224 304 702.681 294.892C699.139 285.784 693.359 277.406 685.276 272.526C680.083 269.385 668.047 263.918 661.929 267.084C655.061 270.616 651.889 286.692 648.597 293.449Z" fill="#767D9F"/>
<path d="M651.044 406.106C649.796 381.49 644.716 355.218 655.528 333.37C658.185 328.005 648.653 321.308 651.599 316.113C655.195 309.779 657.922 302.94 659.698 295.8C660.31 293.347 660.801 290.75 660.222 288.288C659.151 283.798 654.941 281.124 651.366 278.391C647.421 275.369 645.392 266.159 644.12 261.177C642.848 256.194 654.24 262.195 658.821 260.421C665.181 257.968 673.264 259.513 679.608 262C683.15 263.375 686.998 263.494 690.774 263.596C698.108 263.799 705.467 263.995 712.745 263.044C716.013 262.611 719.29 261.957 722.574 262.153C730.955 262.653 738.241 268.697 743.2 275.844C748.16 282.991 751.315 291.318 755.381 299.06C758.77 305.511 762.812 311.606 765.702 318.32C768.262 324.262 769.88 330.645 771.482 336.994L775.612 353.283C776.335 355.613 776.678 358.056 776.627 360.507C776.417 363.113 775.323 365.54 774.212 367.858C770.01 376.446 764.973 384.551 759.181 392.041C750.494 403.271 739.948 413.397 734.787 426.843C732.775 432.08 731.656 437.648 730.633 443.2C726.511 465.403 723.581 487.833 721.858 510.385C712.451 505.795 702.59 502.319 692.457 500.02C687.405 498.881 682.299 498.031 677.16 497.474C672.66 496.982 666.856 497.915 662.573 496.625C655.407 494.478 654.619 481.703 653.532 475.014C651.793 464.361 651.447 453.521 651.382 442.758C651.302 430.518 651.664 418.304 651.044 406.106Z" fill="#4C4981"/>
<path d="M493.693 360.074C497.082 380.446 500.818 400.877 508.184 420.018C507.999 420.205 507.814 420.375 507.629 420.545C506.977 421.13 506.3 421.682 505.592 422.242C503.942 423.465 502.13 424.5 500.762 426.096C500.243 426.707 499.834 427.411 499.554 428.176C499.301 428.773 499.17 429.419 499.17 430.073C499.17 430.727 499.301 431.373 499.554 431.97C495.714 433.761 491.254 433.209 486.947 433.039C483.235 432.895 479.637 433.039 476.658 435.187C472.52 438.192 471.272 443.964 470.604 449.21C470.357 451.122 470.145 453.038 469.968 454.956C469.796 456.739 469.656 458.527 469.549 460.321C469.184 466.255 469.133 472.206 469.396 478.146C469.439 479.233 469.495 480.319 469.565 481.406C456.41 481.075 444.423 473.843 433.079 466.814C430.487 465.21 427.814 463.521 426.132 460.873C424.581 458.272 423.925 455.188 424.272 452.138C424.272 451.705 424.344 451.289 424.401 450.848C424.761 448.329 425.379 445.859 426.244 443.48C429.793 433.348 435.025 423.964 441.694 415.766C444.576 412.218 447.82 408.746 449.165 404.29C449.752 402.346 449.97 400.283 450.565 398.348C453.238 389.961 462.883 385.997 466.184 377.857C466.989 375.913 467.359 373.783 468.358 371.915C469.256 370.363 470.416 368.997 471.779 367.883C472.367 367.365 472.979 366.865 473.582 366.364C479.239 361.69 484.69 356.752 489.933 351.552C490.91 350.584 491.876 349.605 492.832 348.615C492.704 352.457 492.993 356.301 493.693 360.074V360.074Z" fill="#4C4981"/>
<path d="M574.82 299.823C573.661 301.114 572.405 302.328 571.173 303.533L570.843 303.847L569.539 305.12C567.171 307.274 565.123 309.789 563.46 312.581L563.323 312.819C559.218 320.569 560.739 330.11 561.882 338.912C563.3 349.881 563.938 360.947 563.79 372.016C563.581 387.295 561.874 402.472 561.842 417.734C561.842 421.198 561.915 424.652 562.06 428.116C562.293 433.743 562.696 439.363 563.179 444.982C563.702 451.144 564.33 457.298 564.918 463.453C565.384 468.214 565.827 472.968 566.198 477.721C566.383 480.183 566.56 482.636 566.705 485.098C566.874 487.984 567.011 490.878 567.091 493.764C567.148 495.598 567.18 497.423 567.18 499.256C567.18 500.3 567.18 501.336 567.18 502.371C567.18 504.358 567.129 506.338 567.027 508.313C566.919 510.854 566.756 513.401 566.536 515.953C566.286 518.728 565.843 521.759 563.992 523.711C563.879 523.83 563.758 523.94 563.637 524.05L561.029 523.711C543.048 521.441 524.894 521.1 506.848 522.692C507.242 519.823 507.605 516.963 507.959 514.085C508.12 512.727 508.281 511.36 508.434 509.994C508.611 508.432 508.78 506.87 508.941 505.308C509.126 503.611 509.295 501.913 509.456 500.215C509.875 495.841 510.243 491.464 510.559 487.084C511.026 480.695 511.38 474.295 511.622 467.883C511.74 464.822 511.831 461.758 511.896 458.691C511.987 454.888 512.03 451.082 512.024 447.274C512.024 443.573 511.995 439.866 511.936 436.154C511.936 434.932 511.888 433.709 511.791 432.496C511.722 431.403 511.579 430.316 511.364 429.245C510.767 426.773 509.958 424.364 508.949 422.047C508.772 421.605 508.603 421.198 508.434 420.731C508.337 420.502 508.249 420.264 508.16 420.035C512.797 415.68 516.098 409.849 519.27 404.111C524.414 394.867 529.68 385.216 530.541 374.538C531.402 363.859 526.371 351.865 516.694 348.606C514.061 347.757 511.276 347.519 508.563 347.018C506.003 346.543 500.665 345.465 497.702 343.53C496.092 345.273 494.482 346.984 492.872 348.665C492.97 346.101 493.564 343.585 494.619 341.272L495.762 341.331C495.669 341.059 495.625 340.771 495.633 340.482C495.633 339.574 496.229 338.547 497.501 337.41C501.293 334.014 507.258 333.259 509.65 328.667C510.648 326.757 510.817 324.482 511.622 322.479C513.932 316.766 520.566 314.661 524.559 310.094C528.553 305.528 529.551 299.06 532.779 293.967C535.191 290.247 538.536 287.308 542.44 285.478C542.762 285.317 543.092 285.156 543.422 285.011C550.104 281.998 558.042 281.31 564.966 281.327C567.655 281.327 574.627 281.412 578.04 282.847C578.594 283.055 579.101 283.382 579.53 283.806C583.168 287.982 577.509 296.802 574.82 299.823Z" fill="#4C4981"/>
<path d="M494.893 340.678C501.112 338.704 507.641 338.053 514.101 338.763C520.56 339.472 526.822 341.528 532.522 344.812C538.318 348.207 543.519 352.944 546.707 359.055C551.497 368.223 551.288 379.274 550.95 389.74C550.781 394.978 550.563 400.402 548.373 405.104C545.837 410.545 541.055 414.28 536.177 417.336C533.12 419.392 529.772 420.919 526.258 421.86C520.848 423.099 515.229 422.047 509.778 421.011C503.853 419.857 497.493 418.465 493.379 413.813C490.964 411.114 489.644 407.608 488.339 404.179C486.466 399.227 484.588 394.282 482.704 389.341C479.443 380.76 478.34 373.621 482.647 365.26C484.604 361.449 486.995 357.884 488.927 354.047C489.893 352.095 493.355 341.179 494.893 340.678Z" fill="#4C4981"/>
<path d="M833.247 487.415V512.795C816.733 520.029 799.018 523.722 781.135 523.66H564.016C563.903 523.779 563.782 523.89 563.662 524L561.053 523.66H174.837C142.433 523.66 112.404 514.442 87.7767 498.739V459.99L273.522 437.385H273.667L381.837 447.045L409.829 449.591L424.368 450.89L454.462 453.581L469.943 454.965L492.485 456.985L495.657 457.265L511.904 458.716L533.946 460.626L564.942 463.393L616.611 468.02L652.96 471.271L712.648 476.61L723.999 477.62L725.223 477.73L726.286 477.824L741.276 479.165L757.732 480.642L759.64 480.811L833.247 487.415Z" fill="#504F60"/>
<path d="M615.074 486.482L382.296 444.592L373.271 492.712L479.975 506.183L512.83 510.52L603.207 491.753L615.074 486.482Z" fill="#9C9CA1"/>
<path d="M494.579 508.11L611.201 484.996C611.785 484.878 612.386 484.898 612.961 485.054C613.536 485.21 614.072 485.499 614.529 485.899C614.986 486.299 615.353 486.8 615.605 487.368C615.856 487.935 615.986 488.554 615.983 489.181V489.181C615.986 490.174 615.658 491.137 615.056 491.902C614.454 492.667 613.617 493.185 612.69 493.366L498.797 515.851L494.579 508.11Z" fill="#9C9CA1"/>
<path d="M545.169 435.424C548.8 435.068 552.479 434.465 555.748 432.768C559.773 430.654 562.905 427.012 566.632 424.33C574.828 418.388 585.793 417.59 595.188 421.003C604.583 424.415 612.425 431.723 617.915 440.449C621.562 446.264 624.3 453.683 621.723 460.1C620.839 462.061 619.725 463.898 618.406 465.566L611.692 474.819C610.417 476.763 608.882 478.505 607.136 479.988C604.624 481.915 601.5 482.704 598.425 483.18C590.253 484.436 581.937 483.723 573.701 484.3C559.556 485.293 545.741 490.098 531.564 489.936C523.416 489.843 515.374 488.111 507.412 486.38L472.174 478.74C466.039 477.416 459.107 475.481 456.217 469.615C454.921 466.975 454.679 463.92 454.527 460.949C454.108 452.766 454.527 443.667 459.904 437.767C464.96 432.233 472.955 430.484 478.993 426.393C486.383 421.376 488.822 422.997 496.616 426.766C511.819 434.026 528.547 437.009 545.169 435.424V435.424Z" fill="#AE6E79"/>
<path opacity="0.05" d="M545.169 435.424C548.8 435.068 552.479 434.465 555.748 432.768C559.773 430.654 562.905 427.012 566.632 424.33C574.828 418.388 585.793 417.59 595.188 421.003C604.583 424.415 612.425 431.723 617.915 440.449C621.562 446.264 624.3 453.683 621.723 460.1C620.839 462.061 619.725 463.898 618.406 465.566L611.692 474.819C610.417 476.763 608.882 478.505 607.136 479.988C604.624 481.915 601.5 482.704 598.425 483.18C590.253 484.436 581.937 483.723 573.701 484.3C559.556 485.293 545.741 490.098 531.564 489.936C523.416 489.843 515.374 488.111 507.412 486.38L472.174 478.74C466.039 477.416 459.107 475.481 456.217 469.615C454.921 466.975 454.679 463.92 454.527 460.949C454.108 452.766 454.527 443.667 459.904 437.767C464.96 432.233 472.955 430.484 478.993 426.393C486.383 421.376 488.822 422.997 496.616 426.766C511.819 434.026 528.547 437.009 545.169 435.424V435.424Z" fill="black"/>
<path d="M686.676 423.787C676.79 427.819 666.848 431.868 656.494 434.27C639.137 438.302 620.975 437.665 603.754 442.275C594.657 444.719 585.616 448.658 576.269 447.86C572.091 447.503 568.057 446.162 563.992 445.144C541.152 439.202 515.189 441.129 496.64 456.408C490.296 461.628 485.103 468.138 480.393 475.082C479.386 476.582 478.705 478.297 478.399 480.107C478.093 481.916 478.17 483.775 478.625 485.549C479.079 487.324 479.9 488.97 481.028 490.371C482.157 491.773 483.564 492.893 485.151 493.654C492.365 497.152 500.092 499.325 507.999 500.08C518.57 501.065 529.189 499.486 539.703 497.907C555.305 495.573 570.915 493.23 586.477 490.607C592.065 489.665 597.652 488.689 603.271 487.942C643.71 482.552 684.881 489.105 725.424 484.606C729.522 484.147 733.692 483.553 737.42 481.711C746.855 477.043 751.525 464.735 749.577 453.92C747.628 443.106 740.109 434.117 731.06 428.6C723.476 423.957 715.297 422.081 706.851 420.112C699.01 418.185 694.228 420.731 686.676 423.787Z" fill="#AE6E79"/>
<path opacity="0.1" d="M773.406 359.14C777.867 365.303 778.817 373.57 778.333 381.286C777.85 389.002 776.112 396.633 775.854 404.383C775.5 415.01 777.931 425.603 777.52 436.197C777.231 443.607 775.564 450.873 773.592 457.986C771.265 466.381 767.9 475.404 760.55 479.436C750.792 484.792 730.327 481.779 720.063 485.972C720.996 479.835 729.949 470.948 730.883 464.811C731.527 460.567 732.179 456.204 731.486 451.951C730.601 446.527 727.582 441.714 723.999 437.708C718.299 431.333 710.861 426.537 702.689 424.975C694.518 423.414 674.512 424.695 667.975 430.136C667.169 424.517 682.144 419.101 687.409 417.888C690.033 417.268 693.044 417.616 695.146 415.859C699.171 412.532 696.249 405.902 696.442 400.58C696.595 396.336 698.946 392.448 699.421 388.204C700.226 381.413 696.023 374.495 697.674 367.832C698.285 365.37 699.646 363.206 700.588 360.863C703.454 353.691 702.198 345.508 700.668 337.885C699.718 333.098 698.793 327.699 701.321 323.617C703.663 319.805 710.313 333.378 714.572 332.75C728.637 330.67 741.365 319.678 752.724 328.676C758.513 333.259 759.269 338.013 761.58 344.557C763.826 350.788 769.647 353.979 773.406 359.14Z" fill="black"/>
<path d="M775.822 359.14C780.282 365.303 781.232 373.571 780.749 381.286C780.265 389.002 778.527 396.633 778.269 404.383C777.915 415.01 780.346 425.604 779.935 436.197C779.646 443.608 777.979 450.874 776.007 457.987C773.68 466.382 770.315 475.405 762.965 479.437C753.207 484.793 732.742 481.78 722.478 485.973C723.411 479.836 732.364 470.948 733.298 464.811C733.942 460.567 734.594 456.204 733.902 451.952C733.016 446.528 729.997 441.715 726.414 437.708C720.714 431.334 713.276 426.538 705.104 424.976C696.933 423.414 676.927 424.696 670.39 430.137C669.585 424.517 684.559 419.102 689.824 417.888C692.448 417.268 695.459 417.616 697.561 415.859C701.586 412.532 698.664 405.903 698.857 400.58C699.01 396.336 701.361 392.449 701.836 388.204C702.641 381.414 698.438 374.496 700.089 367.832C700.7 365.371 702.061 363.206 703.003 360.864C705.869 353.691 704.613 345.508 703.083 337.886C702.133 333.098 701.208 327.7 703.736 323.617C706.078 319.806 710.659 318.363 714.918 317.726C729.177 315.692 743.625 319.623 755.171 328.676C760.96 333.26 761.717 338.013 764.027 344.558C766.241 350.788 772.062 353.98 775.822 359.14Z" fill="#4C4981"/>
<path d="M243.131 318.923L286.903 489.486C287.44 491.576 288.568 493.444 290.137 494.841C291.706 496.237 293.642 497.097 295.686 497.304L492.703 517.26C494.308 517.423 495.928 517.179 497.425 516.546C498.923 515.914 500.255 514.912 501.31 513.626C502.365 512.339 503.112 510.804 503.488 509.151C503.865 507.497 503.86 505.772 503.475 504.12L455.541 298.381C454.97 295.935 453.596 293.782 451.662 292.304C449.728 290.826 447.36 290.119 444.978 290.308L252.092 305.519C250.611 305.641 249.173 306.105 247.882 306.88C246.591 307.654 245.478 308.719 244.622 309.999C243.766 311.279 243.189 312.743 242.931 314.285C242.673 315.828 242.742 317.411 243.131 318.923V318.923Z" fill="#9C9CA1"/>
<path d="M633.679 352.205C645.639 352.205 655.335 341.849 655.335 329.075C655.335 316.3 645.639 305.944 633.679 305.944C621.718 305.944 612.022 316.3 612.022 329.075C612.022 341.849 621.718 352.205 633.679 352.205Z" fill="white"/>
<path d="M651.463 286.879C651.463 286.879 656.028 301.19 642.559 307.208L640.836 310.383L649.273 319.16C649.273 319.16 659.675 299.153 658.547 292.048C658.547 292.048 656.937 284.833 651.463 286.879Z" fill="white"/>
<path d="M636.166 352.205C647.7 352.205 657.05 342.347 657.05 330.187C657.05 318.026 647.7 308.168 636.166 308.168C624.633 308.168 615.283 318.026 615.283 330.187C615.283 342.347 624.633 352.205 636.166 352.205Z" fill="#0F4C81"/>
<path d="M658.652 295.3L655.335 289.528L650.505 288.806C651.535 269.801 646.858 264.139 646.858 264.139L645.771 264.029L641.037 263.545L632.133 253.8V251.033C644.644 252.604 651.559 258.868 655.295 266.21C661.896 279.096 658.652 295.3 658.652 295.3Z" fill="#0F4C81"/>
<path opacity="0.1" d="M645.811 260.532V264.029L641.077 263.545L632.173 253.8C632.173 253.8 645.948 257.051 645.811 260.532Z" fill="black" stroke="#4C4981" stroke-miterlimit="10"/>
<path opacity="0.1" d="M658.652 295.3L655.335 289.528V266.244C661.896 279.095 658.652 295.3 658.652 295.3Z" fill="black" stroke="#4C4981" stroke-miterlimit="10"/>
<path d="M597.576 339.238C603.133 335.855 602.894 324.451 597.043 313.765C591.191 303.08 581.943 297.159 576.387 300.542C570.831 303.924 571.07 315.328 576.921 326.014C582.772 336.7 592.02 342.62 597.576 339.238Z" fill="white"/>
<path d="M590.116 318.023C595.969 328.709 603.15 335.848 597.595 339.243C592.04 342.639 575.859 340.941 570.006 330.246C564.153 319.55 569.466 304.781 575.021 301.385C580.576 297.99 584.255 307.31 590.116 318.023Z" fill="#0F4C81"/>
<path opacity="0.1" d="M642.229 241.034C642.229 275.182 620.065 308.092 587.677 308.092C572.122 308.092 557.205 301.577 546.206 289.98C535.207 278.383 529.028 262.655 529.028 246.254C529.028 229.854 535.207 214.125 546.206 202.529C557.205 190.932 572.122 184.417 587.677 184.417C620.065 184.451 642.229 206.877 642.229 241.034Z" fill="black"/>
<path d="M587.677 306.427C620.068 306.427 646.326 278.742 646.326 244.59C646.326 210.438 620.068 182.753 587.677 182.753C555.286 182.753 529.028 210.438 529.028 244.59C529.028 278.742 555.286 306.427 587.677 306.427Z" fill="#AE6E79"/>
<path d="M582.525 217.19C589.504 219.898 593.634 227.503 599.898 231.739C608.754 237.681 620.282 236.144 630.394 233.207C636.029 231.586 641.923 229.608 647.469 231.408C648.285 231.789 649.185 231.924 650.07 231.798C651.277 231.433 651.873 230.024 652.268 228.768C659.127 207.208 656.043 182.787 645.69 162.839C643.017 157.696 639.813 152.721 635.401 149.148C631.924 146.338 627.834 144.496 623.712 142.926C616.179 140.073 608.388 138.045 600.461 136.874C599.062 136.606 597.632 136.557 596.219 136.729C594.279 137.06 592.54 138.164 590.809 139.149C583.395 143.339 575.174 145.693 566.769 146.033C555.498 146.482 542.617 143.681 533.931 151.304C523.465 160.446 526.073 178.28 519.286 190.69C514.794 198.898 506.131 204.857 504.706 214.202C504.335 217.059 504.508 219.964 505.214 222.75C508.531 237.129 521.734 248.266 535.806 248.529C537.967 248.703 540.132 248.235 542.054 247.179C543.313 246.273 544.425 245.158 545.346 243.877C554.564 232.367 565.111 210.433 582.525 217.19Z" fill="#444053"/>
<path opacity="0.1" d="M652.268 222.512C651.873 223.769 651.277 225.178 650.07 225.543C649.185 225.668 648.285 225.533 647.469 225.152C641.922 223.353 635.997 225.331 630.402 226.952C620.282 229.889 608.729 231.459 599.906 225.483C593.634 221.239 589.512 213.6 582.524 210.934C565.111 204.144 554.564 226.111 545.322 237.622C544.401 238.902 543.289 240.017 542.029 240.924C540.107 241.98 537.943 242.447 535.782 242.273C521.758 242.01 508.546 230.873 505.189 216.494C505.004 215.645 504.843 214.797 504.722 213.948C504.722 214.024 504.722 214.092 504.682 214.168C504.311 217.025 504.483 219.931 505.189 222.716C508.506 237.095 521.717 248.232 535.782 248.495C537.943 248.669 540.107 248.201 542.029 247.145C543.289 246.239 544.401 245.124 545.322 243.844C554.564 232.333 565.111 210.4 582.524 217.156C589.512 219.864 593.634 227.47 599.906 231.705C608.762 237.647 620.282 236.111 630.402 233.174C636.037 231.552 641.922 229.575 647.469 231.374C648.285 231.755 649.185 231.89 650.07 231.765C651.277 231.4 651.873 229.991 652.268 228.734C655.034 219.913 656.256 210.634 655.874 201.351C655.637 208.55 654.423 215.677 652.268 222.512V222.512Z" fill="black"/>
</g>
<defs>
<clipPath id="clip0">
<rect width="921" height="524" fill="white"/>
</clipPath>
</defs>
</svg>
